<svg width="24" height="20" viewBox="0 0 24 20" fill="none" xmlns="http://www.w3.org/2000/svg">
<path d="M22 4.79167V17.2917C22 17.8646 21.7824 18.355 21.3472 18.763C20.912 19.171 20.3889 19.375 19.7778 19.375H4.22222C3.61111 19.375 3.08796 19.171 2.65278 18.763C2.21759 18.355 2 17.8646 2 17.2917V2.70833C2 2.13542 2.21759 1.64497 2.65278 1.23698C3.08796 0.828993 3.61111 0.625 4.22222 0.625H17.5556L22 4.79167ZM19.7778 5.67708L16.6111 2.70833H4.22222V17.2917H19.7778V5.67708ZM12 16.25C12.9259 16.25 13.713 15.9462 14.3611 15.3385C15.0093 14.7309 15.3333 13.9931 15.3333 13.125C15.3333 12.2569 15.0093 11.5191 14.3611 10.9115C13.713 10.3038 12.9259 10 12 10C11.0741 10 10.287 10.3038 9.63889 10.9115C8.99074 11.5191 8.66667 12.2569 8.66667 13.125C8.66667 13.9931 8.99074 14.7309 9.63889 15.3385C10.287 15.9462 11.0741 16.25 12 16.25ZM5.33333 7.91667H15.3333V3.75H5.33333V7.91667ZM4.22222 5.67708V17.2917V2.70833V5.67708Z" fill="#666666"/>
</svg>
