<svg width="24" height="25" viewBox="0 0 24 25" fill="none" xmlns="http://www.w3.org/2000/svg">
<path d="M12 5.5L12.7071 4.79289L12 4.08579L11.2929 4.79289L12 5.5ZM11 17.5C11 18.0523 11.4477 18.5 12 18.5C12.5523 18.5 13 18.0523 13 17.5L11 17.5ZM18 11.5L18.7071 10.7929L12.7071 4.79289L12 5.5L11.2929 6.20711L17.2929 12.2071L18 11.5ZM12 5.5L11.2929 4.79289L5.29289 10.7929L6 11.5L6.70711 12.2071L12.7071 6.20711L12 5.5ZM12 5.5L11 5.5L11 17.5L12 17.5L13 17.5L13 5.5L12 5.5Z" fill="#C1C1C1"/>
<path d="M5 21.5L19 21.5" stroke="#C1C1C1" stroke-width="2"/>
</svg>
